<svg xmlns="http://www.w3.org/2000/svg" width="1024" height="1536" viewBox="0 0 1024 1536">
<defs><linearGradient id="g" x1="0" y1="0" x2="1" y2="1"><stop stop-color="#003f32"/><stop offset="1" stop-color="#00604a"/></linearGradient><filter id="s"><feDropShadow dx="0" dy="8" stdDeviation="8" flood-opacity=".18"/></filter></defs>
<rect width="1024" height="1536" fill="#fbfaf6"/>
<path d="M0 0H650C560 150 410 270 190 350L0 430Z" fill="url(#g)"/>
<path d="M0 0H620C545 135 400 245 170 335L0 405Z" fill="none" stroke="#ba8420" stroke-width="18"/>
<path d="M0 1180C170 1275 330 1295 610 1395L690 1536H0Z" fill="url(#g)"/>
<path d="M0 1160C180 1260 350 1275 630 1375" fill="none" stroke="#ba8420" stroke-width="20"/>
<g transform="translate(80 80)" fill="#d4a13c"><rect x="10" y="20" width="95" height="125" rx="12" stroke="#7b5411" stroke-width="6"/><rect x="35" width="50" height="25" rx="6"/><circle cx="105" cy="120" r="38" fill="#004b3a" stroke="#d4a13c" stroke-width="7"/><text x="105" y="136" text-anchor="middle" font-size="54" font-family="Arial" fill="#d4a13c">!</text></g>
<g font-family="Arial" direction="rtl" text-anchor="middle">
<text x="560" y="560" font-size="86" font-weight="700" fill="#004b3a">تقرير الشكاوى</text>
<line x1="355" y1="625" x2="765" y2="625" stroke="#b88919" stroke-width="4"/><polygon points="560,610 575,625 560,640 545,625" fill="#b88919"/>
<text x="560" y="715" font-size="35" font-weight="700" fill="#004b3a">الفترة من 2026-01-03 إلى 2026-08-02</text>
<text x="560" y="775" font-size="28" fill="#666">مقارنة مع الفترة المماثلة السابقة</text>
</g>
<g filter="url(#s)" font-family="Arial" direction="rtl" text-anchor="middle">
<g transform="translate(120 850)"><rect width="235" height="310" rx="22" fill="#fff" stroke="#d8be7a"/><circle cx="118" cy="78" r="46" fill="none" stroke="#b88919" stroke-width="5"/><text x="118" y="90" font-size="38" fill="#b88919">●●●</text><text x="118" y="178" font-size="30" fill="#004b3a">إجمالي الشكاوى</text><text x="118" y="250" font-size="64" font-weight="700" fill="#004b3a">986</text><line x1="90" y1="285" x2="145" y2="285" stroke="#b88919" stroke-width="5"/></g>
<g transform="translate(395 850)"><rect width="235" height="310" rx="22" fill="#fff" stroke="#d8be7a"/><circle cx="118" cy="78" r="46" fill="none" stroke="#b88919" stroke-width="5"/><rect x="93" y="65" width="50" height="35" rx="5" fill="#b88919"/><text x="118" y="178" font-size="30" fill="#004b3a">المفتوحة</text><text x="118" y="250" font-size="64" font-weight="700" fill="#004b3a">166</text><line x1="90" y1="285" x2="145" y2="285" stroke="#b88919" stroke-width="5"/></g>
<g transform="translate(670 850)"><rect width="235" height="310" rx="22" fill="#fff" stroke="#d8be7a"/><circle cx="118" cy="78" r="46" fill="none" stroke="#004b3a" stroke-width="5"/><text x="118" y="94" font-size="48" fill="#004b3a">✓</text><text x="118" y="178" font-size="30" fill="#004b3a">المغلقة</text><text x="118" y="250" font-size="64" font-weight="700" fill="#004b3a">820</text><line x1="90" y1="285" x2="145" y2="285" stroke="#b88919" stroke-width="5"/></g>
</g>
<text x="120" y="1460" font-family="Arial" font-size="24" fill="#fff">صفحة 1 من 4</text>
</svg>