<svg xmlns="http://www.w3.org/2000/svg" width="1024" height="1536" viewBox="0 0 1024 1536">
<defs><linearGradient id="g" x1="0" y1="0" x2="1" y2="1"><stop stop-color="#003f32"/><stop offset="1" stop-color="#00604a"/></linearGradient><filter id="s"><feDropShadow dx="0" dy="5" stdDeviation="5" flood-opacity=".16"/></filter></defs>
<rect width="1024" height="1536" fill="url(#g)"/>
<path d="M0 0H610C520 120 365 220 0 340Z" fill="#00392d"/>
<path d="M610 0C525 130 390 225 210 300" fill="none" stroke="#b88919" stroke-width="14"/>
<g font-family="Arial" direction="rtl"><text x="900" y="120" text-anchor="end" font-size="72" font-weight="700" fill="#fff">المناطق</text><rect x="715" y="150" width="185" height="50" rx="24" fill="none" stroke="#b88919" stroke-width="2"/><text x="807" y="184" text-anchor="middle" font-size="24" fill="#fff">جميع المناطق</text></g>
<g transform="translate(40 235)" font-family="Arial" filter="url(#s)"><rect width="944" height="335" rx="20" fill="#fff"/><text x="472" y="48" text-anchor="middle" font-size="32" font-weight="700" fill="#004b3a" direction="rtl">مقارنة المناطق</text><line x1="65" y1="275" x2="900" y2="275" stroke="#777"/><line x1="65" y1="75" x2="65" y2="275" stroke="#777"/>
<g stroke="#ddd"><line x1="65" y1="225" x2="900" y2="225"/><line x1="65" y1="175" x2="900" y2="175"/><line x1="65" y1="125" x2="900" y2="125"/></g>
<g fill="#005842"><rect x="85" y="113" width="48" height="162"/><rect x="152" y="136" width="48" height="139"/><rect x="219" y="247" width="48" height="28"/><rect x="286" y="260" width="48" height="15"/><rect x="353" y="261" width="48" height="14"/><rect x="420" y="261" width="48" height="14"/><rect x="487" y="267" width="48" height="8"/><rect x="554" y="269" width="48" height="6"/><rect x="621" y="272" width="48" height="3"/><rect x="688" y="273" width="48" height="2"/><rect x="755" y="274" width="48" height="1"/><rect x="822" y="274" width="48" height="1"/></g>
<g text-anchor="middle" font-size="16" fill="#111"><text x="109" y="103">404</text><text x="176" y="126">346</text><text x="243" y="237">70</text><text x="310" y="250">38</text><text x="377" y="251">35</text><text x="444" y="251">35</text><text x="511" y="257">19</text><text x="578" y="259">16</text><text x="645" y="262">8</text><text x="712" y="263">5</text><text x="779" y="264">4</text><text x="846" y="264">2</text></g>
<g text-anchor="middle" font-size="14" fill="#222" direction="rtl"><text x="109" y="305">الرياض</text><text x="176" y="305">مكة</text><text x="243" y="305">الشرقية</text><text x="310" y="305">جازان</text><text x="377" y="305">المدينة</text><text x="444" y="305">عسير</text><text x="511" y="305">تبوك</text><text x="578" y="305">الحدود</text><text x="645" y="305">القصيم</text><text x="712" y="305">نجران</text><text x="779" y="305">حائل</text><text x="846" y="305">الجوف</text></g></g>
<g font-family="Arial" direction="rtl" filter="url(#s)">
<g transform="translate(40 600)"><rect width="220" height="125" rx="16" fill="#fff"/><text x="195" y="30" text-anchor="end" font-size="22" font-weight="700" fill="#004b3a">الرياض</text><text x="195" y="68" text-anchor="end" font-size="16" fill="#23433a">إجمالي 404 | مفتوحة 31</text><text x="195" y="100" text-anchor="end" font-size="16" fill="#b56f00">متأخرة 0</text></g>
<g transform="translate(270 600)"><rect width="220" height="125" rx="16" fill="#fff"/><text x="195" y="30" text-anchor="end" font-size="22" font-weight="700" fill="#004b3a">مكة المكرمة</text><text x="195" y="68" text-anchor="end" font-size="16" fill="#23433a">إجمالي 346 | مفتوحة 88</text><text x="195" y="100" text-anchor="end" font-size="16" fill="#b56f00">متأخرة 0</text></g>
<g transform="translate(500 600)"><rect width="220" height="125" rx="16" fill="#fff"/><text x="195" y="30" text-anchor="end" font-size="22" font-weight="700" fill="#004b3a">الشرقية</text><text x="195" y="68" text-anchor="end" font-size="16" fill="#23433a">إجمالي 70 | مفتوحة 14</text><text x="195" y="100" text-anchor="end" font-size="16" fill="#b56f00">متأخرة 0</text></g>
<g transform="translate(730 600)"><rect width="220" height="125" rx="16" fill="#fff"/><text x="195" y="30" text-anchor="end" font-size="22" font-weight="700" fill="#004b3a">جازان</text><text x="195" y="68" text-anchor="end" font-size="16" fill="#23433a">إجمالي 38 | مفتوحة 3</text><text x="195" y="100" text-anchor="end" font-size="16" fill="#b56f00">متأخرة 0</text></g>
<g transform="translate(40 740)"><rect width="220" height="125" rx="16" fill="#fff"/><text x="195" y="30" text-anchor="end" font-size="22" font-weight="700" fill="#004b3a">المدينة المنورة</text><text x="195" y="68" text-anchor="end" font-size="16" fill="#23433a">إجمالي 35 | مفتوحة 6</text><text x="195" y="100" text-anchor="end" font-size="16" fill="#b56f00">متأخرة 0</text></g>
<g transform="translate(270 740)"><rect width="220" height="125" rx="16" fill="#fff"/><text x="195" y="30" text-anchor="end" font-size="22" font-weight="700" fill="#004b3a">عسير</text><text x="195" y="68" text-anchor="end" font-size="16" fill="#23433a">إجمالي 35 | مفتوحة 6</text><text x="195" y="100" text-anchor="end" font-size="16" fill="#b56f00">متأخرة 0</text></g>
<g transform="translate(500 740)"><rect width="220" height="125" rx="16" fill="#fff"/><text x="195" y="30" text-anchor="end" font-size="22" font-weight="700" fill="#004b3a">تبوك</text><text x="195" y="68" text-anchor="end" font-size="16" fill="#23433a">إجمالي 19 | مفتوحة 8</text><text x="195" y="100" text-anchor="end" font-size="16" fill="#b56f00">متأخرة 0</text></g>
<g transform="translate(730 740)"><rect width="220" height="125" rx="16" fill="#fff"/><text x="195" y="30" text-anchor="end" font-size="22" font-weight="700" fill="#004b3a">الحدود الشمالية</text><text x="195" y="68" text-anchor="end" font-size="16" fill="#23433a">إجمالي 16 | مفتوحة 6</text><text x="195" y="100" text-anchor="end" font-size="16" fill="#b56f00">متأخرة 0</text></g>
<g transform="translate(40 880)"><rect width="220" height="125" rx="16" fill="#fff"/><text x="195" y="30" text-anchor="end" font-size="22" font-weight="700" fill="#004b3a">القصيم</text><text x="195" y="68" text-anchor="end" font-size="16" fill="#23433a">إجمالي 8 | مفتوحة 3</text><text x="195" y="100" text-anchor="end" font-size="16" fill="#b56f00">متأخرة 0</text></g>
<g transform="translate(270 880)"><rect width="220" height="125" rx="16" fill="#fff"/><text x="195" y="30" text-anchor="end" font-size="22" font-weight="700" fill="#004b3a">نجران</text><text x="195" y="68" text-anchor="end" font-size="16" fill="#23433a">إجمالي 5 | مفتوحة 2</text><text x="195" y="100" text-anchor="end" font-size="16" fill="#b56f00">متأخرة 0</text></g>
<g transform="translate(500 880)"><rect width="220" height="125" rx="16" fill="#fff"/><text x="195" y="30" text-anchor="end" font-size="22" font-weight="700" fill="#004b3a">حائل</text><text x="195" y="68" text-anchor="end" font-size="16" fill="#23433a">إجمالي 4 | مفتوحة 1</text><text x="195" y="100" text-anchor="end" font-size="16" fill="#b56f00">متأخرة 0</text></g>
<g transform="translate(730 880)"><rect width="220" height="125" rx="16" fill="#fff"/><text x="195" y="30" text-anchor="end" font-size="22" font-weight="700" fill="#004b3a">الجوف</text><text x="195" y="68" text-anchor="end" font-size="16" fill="#23433a">إجمالي 2 | مفتوحة 1</text><text x="195" y="100" text-anchor="end" font-size="16" fill="#b56f00">متأخرة 0</text></g>
</g>
<g transform="translate(40 1040)" font-family="Arial"><rect width="944" height="390" rx="18" fill="#fff"/><text x="472" y="42" text-anchor="middle" font-size="30" font-weight="700" fill="#004b3a" direction="rtl">مقارنة المناطق</text><rect x="15" y="65" width="914" height="48" fill="#004b3a"/>
<g fill="#fff" font-size="17" font-weight="700" text-anchor="middle" direction="rtl"><text x="850" y="96">المنطقة</text><text x="720" y="96">الحالي</text><text x="600" y="96">السابق</text><text x="480" y="96">الفرق</text><text x="360" y="96">نسبة التغير</text><text x="240" y="96">المفتوحة</text><text x="120" y="96">المتأخرة</text></g>
<g font-size="15" fill="#222" text-anchor="middle"><text x="850" y="145">الرياض</text><text x="720" y="145">404</text><text x="600" y="145">0</text><text x="480" y="145" fill="#008647">+404</text><text x="360" y="145">جديد</text><text x="240" y="145">31</text><text x="120" y="145">0</text><text x="850" y="182">مكة المكرمة</text><text x="720" y="182">346</text><text x="600" y="182">0</text><text x="480" y="182" fill="#008647">+346</text><text x="360" y="182">جديد</text><text x="240" y="182">88</text><text x="120" y="182">0</text><text x="850" y="219">الشرقية</text><text x="720" y="219">70</text><text x="600" y="219">0</text><text x="480" y="219" fill="#008647">+70</text><text x="360" y="219">جديد</text><text x="240" y="219">14</text><text x="120" y="219">0</text></g></g>
<text x="80" y="1490" font-family="Arial" font-size="24" fill="#fff">صفحة 3 من 4</text>
</svg>